<svg width="1312" height="696" viewBox="0 0 1312 696" fill="none" xmlns="http://www.w3.org/2000/svg">
<path d="M1150.78 226C1150.78 226 1154.64 231.355 1158.38 232.783C1162.11 234.211 1168.53 232.783 1168.53 232.783C1168.53 232.783 1163.18 236.639 1161.75 240.375C1160.32 244.111 1161.75 250.531 1161.75 250.531C1161.75 250.531 1158.11 244.303 1154.38 242.875C1150.64 241.447 1144 243.748 1144 243.748C1144 243.748 1149.36 240.111 1150.78 236.375C1152.21 232.639 1150.78 226 1150.78 226Z" fill="#FFD960"/>
<path d="M1055.28 0.925781C1055.28 0.925781 1057.43 3.91227 1059.52 4.70867C1061.6 5.50507 1065.18 4.70867 1065.18 4.70867C1065.18 4.70867 1062.19 6.85875 1061.4 8.94248C1060.6 11.0262 1061.4 14.6064 1061.4 14.6064C1061.4 14.6064 1059.37 11.1331 1057.29 10.3367C1055.2 9.54029 1051.5 10.8235 1051.5 10.8235C1051.5 10.8235 1054.49 8.79547 1055.28 6.71174C1056.08 4.62802 1055.28 0.925781 1055.28 0.925781Z" fill="#FFD960"/>
<path d="M122.781 82C122.781 82 126.639 87.3552 130.375 88.7832C134.111 90.2113 140.529 88.7832 140.529 88.7832C140.529 88.7832 135.174 92.6386 133.746 96.375C132.318 100.111 133.746 106.531 133.746 106.531C133.746 106.531 130.111 100.303 126.375 98.875C122.639 97.447 115.998 99.7479 115.998 99.7479C115.998 99.7479 121.353 96.1114 122.781 92.375C124.209 88.6386 122.781 82 122.781 82Z" fill="#FFD960"/>
<path d="M298.785 11C298.785 11 302.643 16.3552 306.379 17.7832C310.115 19.2113 316.533 17.7832 316.533 17.7832C316.533 17.7832 311.178 21.6386 309.75 25.375C308.322 29.1114 309.75 35.5311 309.75 35.5311C309.75 35.5311 306.115 29.303 302.379 27.875C298.643 26.447 292.002 28.7479 292.002 28.7479C292.002 28.7479 297.357 25.1114 298.785 21.375C300.213 17.6386 298.785 11 298.785 11Z" fill="#FFD960"/>
<path d="M585.785 9C585.785 9 589.643 14.3552 593.379 15.7832C597.115 17.2113 603.533 15.7832 603.533 15.7832C603.533 15.7832 598.178 19.6386 596.75 23.375C595.322 27.1114 596.75 33.5311 596.75 33.5311C596.75 33.5311 593.115 27.303 589.379 25.875C585.643 24.447 579.002 26.7479 579.002 26.7479C579.002 26.7479 584.357 23.1114 585.785 19.375C587.213 15.6386 585.785 9 585.785 9Z" fill="#FFD960"/>
<path d="M1293.78 203C1293.78 203 1297.64 208.355 1301.38 209.783C1305.11 211.211 1311.53 209.783 1311.53 209.783C1311.53 209.783 1306.18 213.639 1304.75 217.375C1303.32 221.111 1304.75 227.531 1304.75 227.531C1304.75 227.531 1301.11 221.303 1297.38 219.875C1293.64 218.447 1287 220.748 1287 220.748C1287 220.748 1292.36 217.111 1293.78 213.375C1295.21 209.639 1293.78 203 1293.78 203Z" fill="#FFD960"/>
<path d="M1240.19 96.5352C1240.19 96.5352 1244.37 97.4314 1246.78 96.493C1249.2 95.5545 1251.66 92.0775 1251.66 92.0775C1251.66 92.0775 1250.77 96.259 1251.71 98.6756C1252.64 101.092 1256.12 103.556 1256.12 103.556C1256.12 103.556 1251.67 102.144 1249.25 103.082C1246.83 104.021 1244.64 108.014 1244.64 108.014C1244.64 108.014 1245.64 103.938 1244.7 101.521C1243.76 99.1046 1240.19 96.5352 1240.19 96.5352Z" fill="#FFD960"/>
<path d="M0 251.457C0 251.457 4.18243 252.353 6.59904 251.415C9.01566 250.476 11.4789 246.999 11.4789 246.999C11.4789 246.999 10.5818 251.181 11.5203 253.597C12.4587 256.014 15.9366 258.478 15.9366 258.478C15.9366 258.478 11.4817 257.066 9.06505 258.004C6.64844 258.943 4.45766 262.936 4.45766 262.936C4.45766 262.936 5.44995 258.86 4.51149 256.443C3.57304 254.026 0 251.457 0 251.457Z" fill="#FFD960"/>
<path d="M1235 344.457C1235 344.457 1239.18 345.353 1241.6 344.415C1244.02 343.476 1246.48 339.999 1246.48 339.999C1246.48 339.999 1245.58 344.181 1246.52 346.597C1247.46 349.014 1250.94 351.478 1250.94 351.478C1250.94 351.478 1246.48 350.066 1244.07 351.004C1241.65 351.943 1239.46 355.936 1239.46 355.936C1239.46 355.936 1240.45 351.86 1239.51 349.443C1238.57 347.026 1235 344.457 1235 344.457Z" fill="#FFD960"/>
<path d="M838 8.45703C838 8.45703 842.182 9.35328 844.599 8.41483C847.016 7.47638 849.479 3.99937 849.479 3.99937C849.479 3.99937 848.582 8.18085 849.52 10.5975C850.459 13.0141 853.937 15.4783 853.937 15.4783C853.937 15.4783 849.482 14.0657 847.065 15.0041C844.648 15.9426 842.458 19.936 842.458 19.936C842.458 19.936 843.45 15.8597 842.511 13.4431C841.573 11.0264 838 8.45703 838 8.45703Z" fill="#FFD960"/>
<path d="M1150.78 566C1150.78 566 1154.64 571.355 1158.38 572.783C1162.11 574.211 1168.53 572.783 1168.53 572.783C1168.53 572.783 1163.18 576.639 1161.75 580.375C1160.32 584.111 1161.75 590.531 1161.75 590.531C1161.75 590.531 1158.11 584.303 1154.38 582.875C1150.64 581.447 1144 583.748 1144 583.748C1144 583.748 1149.36 580.111 1150.78 576.375C1152.21 572.639 1150.78 566 1150.78 566Z" fill="#FFD960"/>
<path d="M1055.28 340.926C1055.28 340.926 1057.43 343.912 1059.52 344.709C1061.6 345.505 1065.18 344.709 1065.18 344.709C1065.18 344.709 1062.19 346.859 1061.4 348.942C1060.6 351.026 1061.4 354.606 1061.4 354.606C1061.4 354.606 1059.37 351.133 1057.29 350.337C1055.2 349.54 1051.5 350.823 1051.5 350.823C1051.5 350.823 1054.49 348.795 1055.28 346.712C1056.08 344.628 1055.28 340.926 1055.28 340.926Z" fill="#FFD960"/>
<path d="M122.781 422C122.781 422 126.639 427.355 130.375 428.783C134.111 430.211 140.529 428.783 140.529 428.783C140.529 428.783 135.174 432.639 133.746 436.375C132.318 440.111 133.746 446.531 133.746 446.531C133.746 446.531 130.111 440.303 126.375 438.875C122.639 437.447 115.998 439.748 115.998 439.748C115.998 439.748 121.353 436.111 122.781 432.375C124.209 428.639 122.781 422 122.781 422Z" fill="#FFD960"/>
<path d="M298.785 351C298.785 351 302.643 356.355 306.379 357.783C310.115 359.211 316.533 357.783 316.533 357.783C316.533 357.783 311.178 361.639 309.75 365.375C308.322 369.111 309.75 375.531 309.75 375.531C309.75 375.531 306.115 369.303 302.379 367.875C298.643 366.447 292.002 368.748 292.002 368.748C292.002 368.748 297.357 365.111 298.785 361.375C300.213 357.639 298.785 351 298.785 351Z" fill="#FFD960"/>
<path d="M585.785 349C585.785 349 589.643 354.355 593.379 355.783C597.115 357.211 603.533 355.783 603.533 355.783C603.533 355.783 598.178 359.639 596.75 363.375C595.322 367.111 596.75 373.531 596.75 373.531C596.75 373.531 593.115 367.303 589.379 365.875C585.643 364.447 579.002 366.748 579.002 366.748C579.002 366.748 584.357 363.111 585.785 359.375C587.213 355.639 585.785 349 585.785 349Z" fill="#FFD960"/>
<path d="M1293.78 543C1293.78 543 1297.64 548.355 1301.38 549.783C1305.11 551.211 1311.53 549.783 1311.53 549.783C1311.53 549.783 1306.18 553.639 1304.75 557.375C1303.32 561.111 1304.75 567.531 1304.75 567.531C1304.75 567.531 1301.11 561.303 1297.38 559.875C1293.64 558.447 1287 560.748 1287 560.748C1287 560.748 1292.36 557.111 1293.78 553.375C1295.21 549.639 1293.78 543 1293.78 543Z" fill="#FFD960"/>
<path d="M1240.19 436.535C1240.19 436.535 1244.37 437.431 1246.78 436.493C1249.2 435.555 1251.66 432.077 1251.66 432.077C1251.66 432.077 1250.77 436.259 1251.71 438.676C1252.64 441.092 1256.12 443.556 1256.12 443.556C1256.12 443.556 1251.67 442.144 1249.25 443.082C1246.83 444.021 1244.64 448.014 1244.64 448.014C1244.64 448.014 1245.64 443.938 1244.7 441.521C1243.76 439.105 1240.19 436.535 1240.19 436.535Z" fill="#FFD960"/>
<path d="M0 591.457C0 591.457 4.18243 592.353 6.59904 591.415C9.01566 590.476 11.4789 586.999 11.4789 586.999C11.4789 586.999 10.5818 591.181 11.5203 593.597C12.4587 596.014 15.9366 598.478 15.9366 598.478C15.9366 598.478 11.4817 597.066 9.06505 598.004C6.64844 598.943 4.45766 602.936 4.45766 602.936C4.45766 602.936 5.44995 598.86 4.51149 596.443C3.57304 594.026 0 591.457 0 591.457Z" fill="#FFD960"/>
<path d="M1235 684.457C1235 684.457 1239.18 685.353 1241.6 684.415C1244.02 683.476 1246.48 679.999 1246.48 679.999C1246.48 679.999 1245.58 684.181 1246.52 686.597C1247.46 689.014 1250.94 691.478 1250.94 691.478C1250.94 691.478 1246.48 690.066 1244.07 691.004C1241.65 691.943 1239.46 695.936 1239.46 695.936C1239.46 695.936 1240.45 691.86 1239.51 689.443C1238.57 687.026 1235 684.457 1235 684.457Z" fill="#FFD960"/>
<path d="M838 348.457C838 348.457 842.182 349.353 844.599 348.415C847.016 347.476 849.479 343.999 849.479 343.999C849.479 343.999 848.582 348.181 849.52 350.597C850.459 353.014 853.937 355.478 853.937 355.478C853.937 355.478 849.482 354.066 847.065 355.004C844.648 355.943 842.458 359.936 842.458 359.936C842.458 359.936 843.45 355.86 842.511 353.443C841.573 351.026 838 348.457 838 348.457Z" fill="#FFD960"/>
</svg>
