<svg width="42" height="42" viewBox="0 0 42 42" fill="none" xmlns="http://www.w3.org/2000/svg">
<ellipse cx="21.0013" cy="21.0013" rx="17.7692" ry="17.7692" fill="white"/>
<ellipse cx="21.0013" cy="21.0013" rx="17.7692" ry="17.7692" fill="white" fill-opacity="0.2"/>
<path d="M28.2919 11.2793H13.71C12.3372 11.2793 11.2793 12.3372 11.2793 13.71V28.2919C11.2793 29.6635 12.3372 30.7227 13.71 30.7227H28.2919C29.6635 30.7227 30.7227 29.6648 30.7227 28.2919V13.71C30.7227 12.3372 29.6635 11.2793 28.2919 11.2793ZM21.0154 17.1816C23.1719 17.1816 24.9188 18.8747 24.9188 20.9642C24.9188 23.0524 23.1719 24.7469 21.0154 24.7469C18.8603 24.7469 17.1134 23.0524 17.1134 20.9642C17.1134 18.8747 18.8616 17.1816 21.0154 17.1816ZM28.2919 27.6842C28.2919 28.1108 28.1095 28.2919 27.6842 28.2919H14.3177C13.8925 28.2919 13.71 28.1108 13.71 27.6842V19.1779L15.2247 19.5074C15.0619 20.0363 14.974 20.5954 14.974 21.1755C14.974 24.4069 17.6804 27.0293 21.0154 27.0293C24.3518 27.0293 27.0569 24.4082 27.0569 21.1755C27.0569 20.5954 26.9689 20.0363 26.8062 19.5074L28.2919 19.1779V27.6842ZM28.2919 16.7485C28.2919 17.0845 28.0202 17.3562 27.6842 17.3562H25.2535C24.9175 17.3562 24.6458 17.0845 24.6458 16.7485V14.3177C24.6458 13.9817 24.9175 13.71 25.2535 13.71H27.6842C28.0202 13.71 28.2919 13.9817 28.2919 14.3177V16.7485Z" fill="#254A79"/>
<path d="M21 1.3125C31.8557 1.3125 40.6875 10.1443 40.6875 21C40.6875 31.8557 31.8557 40.6875 21 40.6875C10.1443 40.6875 1.3125 31.8557 1.3125 21C1.3125 10.1443 10.1443 1.3125 21 1.3125ZM21 0C9.40144 0 0 9.40275 0 21C0 32.5973 9.40144 42 21 42C32.5986 42 42 32.5986 42 21C42 9.40144 32.5986 0 21 0Z" fill="white"/>
<path d="M21 1.3125C31.8557 1.3125 40.6875 10.1443 40.6875 21C40.6875 31.8557 31.8557 40.6875 21 40.6875C10.1443 40.6875 1.3125 31.8557 1.3125 21C1.3125 10.1443 10.1443 1.3125 21 1.3125ZM21 0C9.40144 0 0 9.40275 0 21C0 32.5973 9.40144 42 21 42C32.5986 42 42 32.5986 42 21C42 9.40144 32.5986 0 21 0Z" fill="white" fill-opacity="0.2"/>
</svg>
