<svg width="203" height="67" viewBox="0 0 203 67" fill="none" xmlns="http://www.w3.org/2000/svg">
<path fill-rule="evenodd" clip-rule="evenodd" d="M6.65002 25.6L7.08635 24.0884H2.12396L1.64917 25.6H6.65002ZM17.8628 21.466L18.1782 22.5588H22.8335L22.3524 21.0533H3.07734L2.60444 22.5588H7.52789L7.84334 21.466H17.8628ZM3.79806 18.7588H21.6191L16.7754 3.60185C16.5942 2.6698 16.0117 2.20378 15.0278 2.20378H10.2511C9.31907 2.20378 8.77538 2.60508 8.62004 3.40767L3.79806 18.7588ZM29.4663 21.0533V22.5588H34.326L34.329 21.0533H29.4663ZM34.3336 18.7588H29.4663V2.20378C32.6508 1.97077 35.654 1.85427 38.476 1.85427C42.8256 1.85427 45.8806 2.85103 47.6411 4.84457C49.5052 6.91577 50.4372 10.5663 50.4372 15.7961C50.4372 16.8498 50.4068 17.8374 50.346 18.7588H45.1592C45.2527 17.7715 45.3033 16.6545 45.311 15.4077C45.311 11.3948 44.8968 8.7928 44.0683 7.60186C43.2657 6.4627 41.5311 5.89312 38.8644 5.89312L34.3595 5.93195L34.3336 18.7588ZM44.8154 21.0533C44.6877 21.6297 44.5353 22.1315 44.3584 22.5588H49.8458C49.948 22.0858 50.0369 21.5839 50.1126 21.0533H44.8154ZM56.9982 21.0533V22.5588H61.9119L61.9167 21.0533H56.9982ZM72.4158 18.7588V16.7669H61.9303L61.924 18.7588H56.9982V2.20378H61.8915V12.7281H72.4158V2.20378H77.2702V18.7588H72.4158ZM72.4158 21.0533V22.5588H77.2702V21.0533H72.4158ZM84.7577 21.0533V22.5588H89.6174L89.6205 21.0533H84.7577ZM100.451 18.7588C100.544 17.7715 100.595 16.6545 100.602 15.4077C100.602 11.3948 100.188 8.7928 99.3597 7.60186C98.5572 6.4627 96.8225 5.89312 94.1558 5.89312L89.651 5.93195L89.6251 18.7588H84.7577V2.20378C87.9422 1.97077 90.9455 1.85427 93.7675 1.85427C98.117 1.85427 101.172 2.85103 102.933 4.84457C104.797 6.91577 105.729 10.5663 105.729 15.7961C105.729 16.8498 105.698 17.8374 105.637 18.7588H100.451ZM100.107 21.0533C99.9791 21.6297 99.8268 22.1315 99.6498 22.5588H105.137C105.239 22.0858 105.328 21.5839 105.404 21.0533H100.107ZM117.738 21.0533V22.5588H122.593V21.0533H117.738ZM135.796 21.0533V22.5588H140.691L140.701 21.0533H135.796ZM140.716 18.7588H135.796V7.097C135.77 3.78308 137.608 2.12611 141.311 2.12611C146.877 2.12611 150.825 2.24262 153.155 2.47563L153.039 6.16496H142.709C141.311 6.16496 140.638 6.94167 140.689 8.49507V13.1941H151.602L151.641 16.8058H140.728L140.716 18.7588ZM171.998 21.0533C172.024 21.2761 172.04 21.5173 172.046 21.7767C172.046 22.0561 172.033 22.3168 172.007 22.5588H176.938C176.94 22.417 176.94 22.2728 176.939 22.1262C176.939 21.7535 176.927 21.3958 176.901 21.0533H171.998ZM176.474 18.7588H170.369C170.074 18.6256 169.727 18.4924 169.328 18.3592L163.968 16.4951C160.318 15.2006 158.48 12.6245 158.454 8.76691C158.454 5.91901 159.204 3.9902 160.706 2.98049C161.949 2.152 164.162 1.73776 167.347 1.73776C170.661 1.73776 173.509 2.04844 175.891 2.6698L175.852 6.08729C172.797 5.98373 170.182 5.93195 168.007 5.93195C166.143 5.93195 164.952 6.0614 164.434 6.3203C163.709 6.70865 163.347 7.65364 163.347 9.15526C163.347 10.2685 163.541 11.0323 163.929 11.4465C164.24 11.809 164.978 12.1844 166.143 12.5728L171.386 14.3592C173.483 15.0841 174.946 16.0679 175.774 17.3106C176.06 17.7302 176.294 18.2129 176.474 18.7588ZM189.109 21.0533V22.5588H193.963V21.0533H189.109ZM193.963 18.7588H189.109V6.35914H180.914V2.20378H202.196V6.35914H193.963V18.7588ZM122.593 18.7588H117.738V6.35914H109.544V2.20378H130.826V6.35914H122.593V18.7588ZM19.0561 25.6L18.6198 24.0884H23.3223L23.8054 25.6H19.0561ZM29.4663 25.6V24.0884H34.3229L34.3207 25.1942C36.2883 25.2459 37.5828 25.2718 38.2042 25.2718C40.5742 25.2718 42.2629 24.8774 43.2702 24.0884H49.4367C49.254 24.6467 49.0463 25.1506 48.8135 25.6H29.4663ZM56.9982 25.6V24.0884H61.9071L61.9023 25.6H56.9982ZM72.4158 25.6V24.0884H77.2702V25.6H72.4158ZM84.7577 25.6V24.0884H89.6144L89.6121 25.1942C91.5798 25.2459 92.8743 25.2718 93.4956 25.2718C95.8657 25.2718 97.5544 24.8774 98.5617 24.0884H104.728C104.545 24.6467 104.338 25.1506 104.105 25.6H84.7577ZM117.738 25.6V24.0884H122.593V25.6H117.738ZM136.205 25.6C136.04 25.1415 135.925 24.6376 135.86 24.0884H140.919C141.002 24.2847 141.106 24.4462 141.233 24.5728C141.544 24.8835 142.1 25.0388 142.903 25.0388H153L153.064 25.6H136.205ZM170.997 24.6116C171.204 24.4814 171.38 24.307 171.526 24.0884H176.832C176.761 24.6394 176.654 25.1432 176.512 25.6H158.914L158.92 25.0388C163.476 25.1424 166.143 25.1942 166.92 25.1942C169.017 25.1942 170.376 25 170.997 24.6116ZM189.109 25.6V24.0884H193.963V25.6H189.109ZM6.42925 26.3648H1.40893L0.581177 29H5.66857L6.42925 26.3648ZM24.0498 26.3648H19.2769L20.0376 29H24.8919L24.0498 26.3648ZM29.4663 26.3648H48.3574C48.1816 26.6202 47.9946 26.8514 47.7965 27.0582C46.2689 28.5858 43.2786 29.3495 38.8255 29.3495C36.2365 29.3495 33.1168 29.233 29.4663 29V26.3648ZM56.9982 26.3648V29H61.8915L61.8998 26.3648H56.9982ZM72.4158 26.3648V29H77.2702V26.3648H72.4158ZM84.7577 26.3648V29C88.4082 29.233 91.528 29.3495 94.117 29.3495C98.5701 29.3495 101.56 28.5858 103.088 27.0582C103.286 26.8514 103.473 26.6202 103.649 26.3648H84.7577ZM117.738 26.3648V29H122.593V26.3648H117.738ZM136.549 26.3648C137.546 28.1734 139.535 29.0777 142.515 29.0777C147.615 29.0777 151.253 28.9741 153.427 28.767L153.152 26.3648H136.549ZM158.905 26.3648L158.881 28.5728C161.832 29.1683 164.771 29.466 167.696 29.466C171.217 29.466 173.612 29 174.881 28.068C175.442 27.6524 175.888 27.0847 176.22 26.3648H158.905ZM189.109 26.3648V29H193.963V26.3648H189.109ZM13.4356 5.81545L14.0181 8.26206L16.6589 17.3495H9.00839L11.6492 8.22322C11.934 7.16173 12.1411 6.35914 12.2705 5.81545H13.4356Z" fill="url(#paint0_linear_1_7)"/>
<path d="M94.275 53.0271V45.0317H97.0703C97.6272 45.0317 98.0866 45.128 98.4484 45.3206C98.8101 45.5106 99.0795 45.767 99.2565 46.0897C99.4335 46.4098 99.522 46.7651 99.522 47.1555C99.522 47.499 99.4608 47.7827 99.3385 48.0066C99.2188 48.2304 99.06 48.4074 98.8622 48.5375C98.667 48.6676 98.4549 48.7639 98.2258 48.8264V48.9045C98.4705 48.9201 98.7164 49.006 98.9637 49.1621C99.2109 49.3183 99.4179 49.5421 99.5844 49.8336C99.751 50.1251 99.8343 50.4817 99.8343 50.9033C99.8343 51.3041 99.7432 51.6646 99.561 51.9847C99.3788 52.3048 99.0912 52.5586 98.6982 52.746C98.3052 52.9334 97.7938 53.0271 97.164 53.0271H94.275ZM95.2432 52.1682H97.164C97.7964 52.1682 98.2454 52.0459 98.5108 51.8012C98.7789 51.554 98.9129 51.2547 98.9129 50.9033C98.9129 50.6326 98.844 50.3828 98.706 50.1537C98.5681 49.9221 98.3716 49.7373 98.1165 49.5994C97.8615 49.4588 97.5596 49.3886 97.2108 49.3886H95.2432V52.1682ZM95.2432 48.5453H97.039C97.3305 48.5453 97.5934 48.488 97.8276 48.3735C98.0645 48.259 98.2519 48.0976 98.3898 47.8894C98.5304 47.6812 98.6006 47.4366 98.6006 47.1555C98.6006 46.8041 98.4783 46.5061 98.2337 46.2615C97.989 46.0142 97.6012 45.8906 97.0703 45.8906H95.2432V48.5453ZM100.793 45.0317H101.902L104.119 48.7639H104.213L106.43 45.0317H107.539L104.65 49.7321V53.0271H103.682V49.7321L100.793 45.0317ZM77.0201 60.5303C76.9342 60.2674 76.821 60.0319 76.6805 59.8236C76.5425 59.6128 76.3773 59.4332 76.1847 59.2849C75.9947 59.1365 75.7786 59.0233 75.5366 58.9453C75.2946 58.8672 75.0291 58.8281 74.7402 58.8281C74.2665 58.8281 73.8358 58.9505 73.448 59.1951C73.0602 59.4398 72.7518 59.8002 72.5227 60.2765C72.2937 60.7528 72.1792 61.3371 72.1792 62.0294C72.1792 62.7217 72.295 63.306 72.5266 63.7823C72.7583 64.2586 73.0719 64.619 73.4675 64.8637C73.8631 65.1083 74.3082 65.2307 74.8027 65.2307C75.2607 65.2307 75.6641 65.1331 76.0129 64.9379C76.3642 64.7401 76.6375 64.4616 76.8327 64.1024C77.0305 63.7406 77.1294 63.3151 77.1294 62.8258L77.4261 62.8883H75.0213V62.0294H78.0664V62.8883C78.0664 63.5467 77.9258 64.1193 77.6448 64.606C77.3663 65.0927 76.9811 65.4701 76.4892 65.7382C75.9999 66.0036 75.4377 66.1364 74.8027 66.1364C74.0947 66.1364 73.4727 65.9698 72.9366 65.6367C72.403 65.3035 71.9866 64.8298 71.6873 64.2156C71.3906 63.6014 71.2422 62.8727 71.2422 62.0294C71.2422 61.3969 71.3268 60.8283 71.496 60.3234C71.6678 59.8158 71.9098 59.3838 72.2221 59.0272C72.5344 58.6707 72.904 58.3974 73.3309 58.2074C73.7577 58.0174 74.2275 57.9224 74.7402 57.9224C75.1618 57.9224 75.5548 57.9862 75.9192 58.1137C76.2862 58.2386 76.6128 58.4169 76.8991 58.6485C77.188 58.8776 77.4287 59.1522 77.6213 59.4723C77.8139 59.7898 77.9467 60.1425 78.0195 60.5303H77.0201ZM86.5256 62.0294C86.5256 62.8727 86.3734 63.6014 86.0689 64.2156C85.7644 64.8298 85.3466 65.3035 84.8157 65.6367C84.2848 65.9698 83.6783 66.1364 82.9964 66.1364C82.3145 66.1364 81.7081 65.9698 81.1772 65.6367C80.6462 65.3035 80.2285 64.8298 79.924 64.2156C79.6195 63.6014 79.4672 62.8727 79.4672 62.0294C79.4672 61.1861 79.6195 60.4574 79.924 59.8432C80.2285 59.2289 80.6462 58.7553 81.1772 58.4221C81.7081 58.089 82.3145 57.9224 82.9964 57.9224C83.6783 57.9224 84.2848 58.089 84.8157 58.4221C85.3466 58.7553 85.7644 59.2289 86.0689 59.8432C86.3734 60.4574 86.5256 61.1861 86.5256 62.0294ZM85.5887 62.0294C85.5887 61.3371 85.4729 60.7528 85.2412 60.2765C85.0122 59.8002 84.7012 59.4398 84.3082 59.1951C83.9178 58.9505 83.4805 58.8281 82.9964 58.8281C82.5123 58.8281 82.0738 58.9505 81.6808 59.1951C81.2904 59.4398 80.9794 59.8002 80.7478 60.2765C80.5187 60.7528 80.4042 61.3371 80.4042 62.0294C80.4042 62.7217 80.5187 63.306 80.7478 63.7823C80.9794 64.2586 81.2904 64.619 81.6808 64.8637C82.0738 65.1083 82.5123 65.2307 82.9964 65.2307C83.4805 65.2307 83.9178 65.1083 84.3082 64.8637C84.7012 64.619 85.0122 64.2586 85.2412 63.7823C85.4729 63.306 85.5887 62.7217 85.5887 62.0294ZM88.2086 66.0271V58.0317H89.1768V65.1682H92.8933V66.0271H88.2086ZM96.9148 66.0271H94.4474V58.0317H97.0241C97.7997 58.0317 98.4633 58.1918 99.0151 58.5119C99.5669 58.8294 99.9898 59.2862 100.284 59.8822C100.578 60.4756 100.725 61.1861 100.725 62.0138C100.725 62.8466 100.577 63.5637 100.28 64.1649C99.9833 64.7635 99.5512 65.2242 98.9839 65.5469C98.4165 65.867 97.7268 66.0271 96.9148 66.0271ZM95.4156 65.1682H96.8523C97.5134 65.1682 98.0612 65.0407 98.4959 64.7856C98.9305 64.5305 99.2545 64.1675 99.468 63.6964C99.6814 63.2253 99.7881 62.6644 99.7881 62.0138C99.7881 61.3683 99.6827 60.8127 99.4719 60.3468C99.261 59.8783 98.9461 59.5191 98.5271 59.2693C98.1081 59.0168 97.5862 58.8906 96.9616 58.8906H95.4156V65.1682ZM102.356 58.0317L104.73 64.7622H104.824L107.197 58.0317H108.212L105.276 66.0271H104.277L101.341 58.0317H102.356ZM109.153 66.0271H108.138L111.074 58.0317H112.074L115.009 66.0271H113.994L111.605 59.2966H111.543L109.153 66.0271ZM109.528 62.9039H113.62V63.7628H109.528V62.9039ZM116.31 66.0271V58.0317H119.011C119.636 58.0317 120.149 58.1384 120.549 58.3518C120.95 58.5627 121.247 58.8529 121.44 59.2224C121.632 59.592 121.728 60.0123 121.728 60.4834C121.728 60.9545 121.632 61.3722 121.44 61.7366C121.247 62.101 120.952 62.3873 120.553 62.5955C120.155 62.8011 119.646 62.9039 119.027 62.9039H116.841V62.0294H118.996C119.422 62.0294 119.766 61.9669 120.026 61.842C120.289 61.7171 120.479 61.5401 120.596 61.3111C120.716 61.0794 120.776 60.8035 120.776 60.4834C120.776 60.1633 120.716 59.8835 120.596 59.6441C120.477 59.4046 120.285 59.2198 120.022 59.0897C119.759 58.957 119.412 58.8906 118.98 58.8906H117.278V66.0271H116.31ZM120.073 62.4354L122.041 66.0271H120.916L118.98 62.4354H120.073ZM128.862 60.5303C128.776 60.2674 128.663 60.0319 128.523 59.8236C128.385 59.6128 128.219 59.4332 128.027 59.2849C127.837 59.1365 127.621 59.0233 127.379 58.9453C127.137 58.8672 126.871 58.8281 126.582 58.8281C126.109 58.8281 125.678 58.9505 125.29 59.1951C124.902 59.4398 124.594 59.8002 124.365 60.2765C124.136 60.7528 124.021 61.3371 124.021 62.0294C124.021 62.7217 124.137 63.306 124.369 63.7823C124.6 64.2586 124.914 64.619 125.31 64.8637C125.705 65.1083 126.15 65.2307 126.645 65.2307C127.103 65.2307 127.506 65.1331 127.855 64.9379C128.206 64.7401 128.48 64.4616 128.675 64.1024C128.873 63.7406 128.972 63.3151 128.972 62.8258L129.268 62.8883H126.863V62.0294H129.909V62.8883C129.909 63.5467 129.768 64.1193 129.487 64.606C129.208 65.0927 128.823 65.4701 128.331 65.7382C127.842 66.0036 127.28 66.1364 126.645 66.1364C125.937 66.1364 125.315 65.9698 124.779 65.6367C124.245 65.3035 123.829 64.8298 123.529 64.2156C123.233 63.6014 123.084 62.8727 123.084 62.0294C123.084 61.3969 123.169 60.8283 123.338 60.3234C123.51 59.8158 123.752 59.3838 124.064 59.0272C124.377 58.6707 124.746 58.3974 125.173 58.2074C125.6 58.0174 126.07 57.9224 126.582 57.9224C127.004 57.9224 127.397 57.9862 127.761 58.1137C128.128 58.2386 128.455 58.4169 128.741 58.6485C129.03 58.8776 129.271 59.1522 129.463 59.4723C129.656 59.7898 129.789 60.1425 129.862 60.5303H128.862Z" fill="#CFAB39"/>
<line x1="20.0063" y1="49.7113" x2="66.3202" y2="49.7113" stroke="#CFAB39" stroke-width="0.628072"/>
<line x1="134.862" y1="49.7113" x2="179.323" y2="49.7113" stroke="#CFAB39" stroke-width="0.628072"/>
<defs>
<linearGradient id="paint0_linear_1_7" x1="98.5943" y1="6.30164" x2="98.5943" y2="76.0179" gradientUnits="userSpaceOnUse">
<stop stop-color="#FFDC6D"/>
<stop offset="1" stop-color="#A27D07"/>
</linearGradient>
</defs>
</svg>
