<svg width="1312" height="756" viewBox="0 0 1312 756" fill="none" xmlns="http://www.w3.org/2000/svg">
<path d="M1087.78 280C1087.78 280 1091.64 285.355 1095.38 286.783C1099.11 288.211 1105.53 286.783 1105.53 286.783C1105.53 286.783 1100.18 290.639 1098.75 294.375C1097.32 298.111 1098.75 304.531 1098.75 304.531C1098.75 304.531 1095.11 298.303 1091.38 296.875C1087.64 295.447 1081 297.748 1081 297.748C1081 297.748 1086.36 294.111 1087.78 290.375C1089.21 286.639 1087.78 280 1087.78 280Z" fill="#59687D"/>
<path d="M1055.28 0.925018C1055.28 0.925018 1057.43 3.91151 1059.52 4.70791C1061.6 5.50431 1065.18 4.70791 1065.18 4.70791C1065.18 4.70791 1062.19 6.85799 1061.4 8.94172C1060.6 11.0254 1061.4 14.6056 1061.4 14.6056C1061.4 14.6056 1059.37 11.1323 1057.29 10.3359C1055.2 9.53952 1051.5 10.8227 1051.5 10.8227C1051.5 10.8227 1054.49 8.79471 1055.28 6.71098C1056.08 4.62725 1055.28 0.925018 1055.28 0.925018Z" fill="#59687D"/>
<path d="M122.781 82C122.781 82 126.639 87.3552 130.375 88.7832C134.111 90.2113 140.529 88.7832 140.529 88.7832C140.529 88.7832 135.174 92.6386 133.746 96.375C132.318 100.111 133.746 106.531 133.746 106.531C133.746 106.531 130.111 100.303 126.375 98.875C122.639 97.447 115.998 99.7479 115.998 99.7479C115.998 99.7479 121.353 96.1114 122.781 92.375C124.209 88.6386 122.781 82 122.781 82Z" fill="#59687D"/>
<path d="M298.785 11C298.785 11 302.643 16.3552 306.379 17.7832C310.115 19.2113 316.533 17.7832 316.533 17.7832C316.533 17.7832 311.178 21.6386 309.75 25.375C308.322 29.1114 309.75 35.5311 309.75 35.5311C309.75 35.5311 306.115 29.303 302.379 27.875C298.643 26.447 292.002 28.7479 292.002 28.7479C292.002 28.7479 297.357 25.1114 298.785 21.375C300.213 17.6386 298.785 11 298.785 11Z" fill="#59687D"/>
<path d="M585.785 8.99924C585.785 8.99924 589.643 14.3544 593.379 15.7825C597.115 17.2105 603.533 15.7825 603.533 15.7825C603.533 15.7825 598.178 19.6378 596.75 23.3742C595.322 27.1106 596.75 33.5304 596.75 33.5304C596.75 33.5304 593.115 27.3023 589.379 25.8742C585.643 24.4462 579.002 26.7471 579.002 26.7471C579.002 26.7471 584.357 23.1106 585.785 19.3742C587.213 15.6378 585.785 8.99924 585.785 8.99924Z" fill="#59687D"/>
<path d="M1293.78 203C1293.78 203 1297.64 208.355 1301.38 209.783C1305.11 211.211 1311.53 209.783 1311.53 209.783C1311.53 209.783 1306.18 213.639 1304.75 217.375C1303.32 221.111 1304.75 227.531 1304.75 227.531C1304.75 227.531 1301.11 221.303 1297.38 219.875C1293.64 218.447 1287 220.748 1287 220.748C1287 220.748 1292.36 217.111 1293.78 213.375C1295.21 209.639 1293.78 203 1293.78 203Z" fill="#59687D"/>
<path d="M246.781 310C246.781 310 250.639 315.355 254.375 316.783C258.111 318.211 264.529 316.783 264.529 316.783C264.529 316.783 259.174 320.639 257.746 324.375C256.318 328.111 257.746 334.531 257.746 334.531C257.746 334.531 254.111 328.303 250.375 326.875C246.639 325.447 239.998 327.748 239.998 327.748C239.998 327.748 245.353 324.111 246.781 320.375C248.209 316.639 246.781 310 246.781 310Z" fill="#59687D"/>
<path d="M1240.19 96.5352C1240.19 96.5352 1244.37 97.4314 1246.78 96.493C1249.2 95.5545 1251.66 92.0775 1251.66 92.0775C1251.66 92.0775 1250.77 96.259 1251.71 98.6756C1252.64 101.092 1256.12 103.556 1256.12 103.556C1256.12 103.556 1251.67 102.144 1249.25 103.082C1246.83 104.021 1244.64 108.014 1244.64 108.014C1244.64 108.014 1245.64 103.938 1244.7 101.521C1243.76 99.1046 1240.19 96.5352 1240.19 96.5352Z" fill="#59687D"/>
<path d="M0 251.457C0 251.457 4.18243 252.353 6.59904 251.415C9.01566 250.476 11.4789 246.999 11.4789 246.999C11.4789 246.999 10.5818 251.181 11.5203 253.597C12.4587 256.014 15.9366 258.478 15.9366 258.478C15.9366 258.478 11.4817 257.066 9.06505 258.004C6.64844 258.943 4.45766 262.936 4.45766 262.936C4.45766 262.936 5.44995 258.86 4.51149 256.443C3.57304 254.026 0 251.457 0 251.457Z" fill="#59687D"/>
<path d="M1235 344.456C1235 344.456 1239.18 345.353 1241.6 344.414C1244.02 343.476 1246.48 339.999 1246.48 339.999C1246.48 339.999 1245.58 344.18 1246.52 346.597C1247.46 349.013 1250.94 351.478 1250.94 351.478C1250.94 351.478 1246.48 350.065 1244.07 351.003C1241.65 351.942 1239.46 355.935 1239.46 355.935C1239.46 355.935 1240.45 351.859 1239.51 349.442C1238.57 347.026 1235 344.456 1235 344.456Z" fill="#59687D"/>
<path d="M838 8.45703C838 8.45703 842.182 9.35328 844.599 8.41483C847.016 7.47638 849.479 3.99937 849.479 3.99937C849.479 3.99937 848.582 8.18085 849.52 10.5975C850.459 13.0141 853.937 15.4783 853.937 15.4783C853.937 15.4783 849.482 14.0657 847.065 15.0041C844.648 15.9426 842.458 19.936 842.458 19.936C842.458 19.936 843.45 15.8597 842.511 13.4431C841.573 11.0264 838 8.45703 838 8.45703Z" fill="#59687D"/>
<path d="M1087.78 680C1087.78 680 1091.64 685.355 1095.38 686.783C1099.11 688.211 1105.53 686.783 1105.53 686.783C1105.53 686.783 1100.18 690.639 1098.75 694.375C1097.32 698.111 1098.75 704.531 1098.75 704.531C1098.75 704.531 1095.11 698.303 1091.38 696.875C1087.64 695.447 1081 697.748 1081 697.748C1081 697.748 1086.36 694.111 1087.78 690.375C1089.21 686.639 1087.78 680 1087.78 680Z" fill="#59687D"/>
<path d="M1055.28 400.925C1055.28 400.925 1057.43 403.912 1059.52 404.708C1061.6 405.504 1065.18 404.708 1065.18 404.708C1065.18 404.708 1062.19 406.858 1061.4 408.942C1060.6 411.025 1061.4 414.606 1061.4 414.606C1061.4 414.606 1059.37 411.132 1057.29 410.336C1055.2 409.54 1051.5 410.823 1051.5 410.823C1051.5 410.823 1054.49 408.795 1055.28 406.711C1056.08 404.627 1055.28 400.925 1055.28 400.925Z" fill="#59687D"/>
<path d="M122.781 482C122.781 482 126.639 487.355 130.375 488.783C134.111 490.211 140.529 488.783 140.529 488.783C140.529 488.783 135.174 492.639 133.746 496.375C132.318 500.111 133.746 506.531 133.746 506.531C133.746 506.531 130.111 500.303 126.375 498.875C122.639 497.447 115.998 499.748 115.998 499.748C115.998 499.748 121.353 496.111 122.781 492.375C124.209 488.639 122.781 482 122.781 482Z" fill="#59687D"/>
<path d="M298.785 411C298.785 411 302.643 416.355 306.379 417.783C310.115 419.211 316.533 417.783 316.533 417.783C316.533 417.783 311.178 421.639 309.75 425.375C308.322 429.111 309.75 435.531 309.75 435.531C309.75 435.531 306.115 429.303 302.379 427.875C298.643 426.447 292.002 428.748 292.002 428.748C292.002 428.748 297.357 425.111 298.785 421.375C300.213 417.639 298.785 411 298.785 411Z" fill="#59687D"/>
<path d="M585.785 408.999C585.785 408.999 589.643 414.354 593.379 415.782C597.115 417.211 603.533 415.782 603.533 415.782C603.533 415.782 598.178 419.638 596.75 423.374C595.322 427.111 596.75 433.53 596.75 433.53C596.75 433.53 593.115 427.302 589.379 425.874C585.643 424.446 579.002 426.747 579.002 426.747C579.002 426.747 584.357 423.111 585.785 419.374C587.213 415.638 585.785 408.999 585.785 408.999Z" fill="#59687D"/>
<path d="M1293.78 603C1293.78 603 1297.64 608.355 1301.38 609.783C1305.11 611.211 1311.53 609.783 1311.53 609.783C1311.53 609.783 1306.18 613.639 1304.75 617.375C1303.32 621.111 1304.75 627.531 1304.75 627.531C1304.75 627.531 1301.11 621.303 1297.38 619.875C1293.64 618.447 1287 620.748 1287 620.748C1287 620.748 1292.36 617.111 1293.78 613.375C1295.21 609.639 1293.78 603 1293.78 603Z" fill="#59687D"/>
<path d="M246.781 710C246.781 710 250.639 715.355 254.375 716.783C258.111 718.211 264.529 716.783 264.529 716.783C264.529 716.783 259.174 720.639 257.746 724.375C256.318 728.111 257.746 734.531 257.746 734.531C257.746 734.531 254.111 728.303 250.375 726.875C246.639 725.447 239.998 727.748 239.998 727.748C239.998 727.748 245.353 724.111 246.781 720.375C248.209 716.639 246.781 710 246.781 710Z" fill="#59687D"/>
<path d="M1240.19 496.535C1240.19 496.535 1244.37 497.431 1246.78 496.493C1249.2 495.555 1251.66 492.077 1251.66 492.077C1251.66 492.077 1250.77 496.259 1251.71 498.676C1252.64 501.092 1256.12 503.556 1256.12 503.556C1256.12 503.556 1251.67 502.144 1249.25 503.082C1246.83 504.021 1244.64 508.014 1244.64 508.014C1244.64 508.014 1245.64 503.938 1244.7 501.521C1243.76 499.105 1240.19 496.535 1240.19 496.535Z" fill="#59687D"/>
<path d="M0 651.457C0 651.457 4.18243 652.353 6.59904 651.415C9.01566 650.476 11.4789 646.999 11.4789 646.999C11.4789 646.999 10.5818 651.181 11.5203 653.597C12.4587 656.014 15.9366 658.478 15.9366 658.478C15.9366 658.478 11.4817 657.066 9.06505 658.004C6.64844 658.943 4.45766 662.936 4.45766 662.936C4.45766 662.936 5.44995 658.86 4.51149 656.443C3.57304 654.026 0 651.457 0 651.457Z" fill="#59687D"/>
<path d="M1235 744.456C1235 744.456 1239.18 745.353 1241.6 744.414C1244.02 743.476 1246.48 739.999 1246.48 739.999C1246.48 739.999 1245.58 744.18 1246.52 746.597C1247.46 749.013 1250.94 751.478 1250.94 751.478C1250.94 751.478 1246.48 750.065 1244.07 751.003C1241.65 751.942 1239.46 755.935 1239.46 755.935C1239.46 755.935 1240.45 751.859 1239.51 749.442C1238.57 747.026 1235 744.456 1235 744.456Z" fill="#59687D"/>
<path d="M838 408.457C838 408.457 842.182 409.353 844.599 408.415C847.016 407.476 849.479 403.999 849.479 403.999C849.479 403.999 848.582 408.181 849.52 410.597C850.459 413.014 853.937 415.478 853.937 415.478C853.937 415.478 849.482 414.066 847.065 415.004C844.648 415.943 842.458 419.936 842.458 419.936C842.458 419.936 843.45 415.86 842.511 413.443C841.573 411.026 838 408.457 838 408.457Z" fill="#59687D"/>
</svg>
