<svg width="1312" height="756" viewBox="0 0 1312 756" fill="none" xmlns="http://www.w3.org/2000/svg">
<g filter="url(#filter0_d_11_124)">
<path d="M280.895 167.393L248.568 140.11C246.197 138.339 242.94 137.758 240.231 138.725L104.807 187.102C101.325 188.346 99.3267 192.55 100.561 196.036L125.937 267.686C127.308 271.559 131.364 273.165 134.846 271.921L270.27 223.544C272.979 222.577 275.139 220.06 275.863 217.183L283.776 175.526C284.501 172.65 283.403 169.551 280.895 167.393ZM261.545 187.831C257.289 189.351 252.572 187.109 251.063 182.849C249.554 178.589 251.802 173.859 256.058 172.338C260.315 170.818 265.031 173.06 266.54 177.32C268.049 181.58 265.801 186.31 261.545 187.831Z" fill="#EC6E62"/>
</g>
<path d="M349.106 177.024L349.104 176.972L349.114 176.92C349.641 174.37 349.003 171.735 346.919 169.575L346.917 169.573C343.563 166.041 336.602 163.518 329.504 163.328C323.536 163.41 317.601 164.982 313.519 167.991L313.519 167.991L313.508 167.998C310.383 170.202 307.828 173.181 306.043 177.217L306.039 177.226L306.035 177.235L306.031 177.244L306.027 177.254L306.023 177.263L306.019 177.272L306.015 177.281L306.011 177.29L306.007 177.3L306.003 177.309L305.999 177.318L305.995 177.327L305.991 177.336L305.987 177.346L305.982 177.355L305.978 177.364L305.974 177.373L305.97 177.382L305.966 177.392L305.962 177.401L305.958 177.41L305.954 177.419L305.95 177.428L305.946 177.438L305.942 177.447L305.938 177.456L305.934 177.465L305.93 177.474L305.925 177.484L305.921 177.493L305.917 177.502L305.913 177.511L305.909 177.52L305.905 177.53L305.901 177.539L305.897 177.548L305.893 177.557L305.889 177.566L305.885 177.576L305.881 177.585L305.877 177.594L305.873 177.603L305.869 177.612L305.864 177.622L305.86 177.631L305.856 177.64L305.852 177.649L305.848 177.658L305.844 177.668L305.84 177.677L305.836 177.686L305.832 177.695L305.828 177.704L305.824 177.714L305.82 177.723L305.816 177.732L305.812 177.741L305.808 177.75L305.803 177.759L305.799 177.769L305.795 177.778L305.791 177.787L305.787 177.796L305.783 177.805L305.779 177.815L305.775 177.824L305.771 177.833L305.767 177.842L305.763 177.851L305.759 177.861L305.755 177.87L305.751 177.879L305.747 177.888L305.742 177.897L305.738 177.907L305.734 177.916L305.73 177.925L305.726 177.934L305.722 177.943L305.718 177.953L305.714 177.962L305.71 177.971L305.706 177.98L305.702 177.989L305.698 177.999L305.694 178.008L305.69 178.017L305.686 178.026L305.681 178.035L305.677 178.045L305.673 178.054L305.669 178.063L305.665 178.072L305.661 178.081L305.657 178.091L305.653 178.1L305.649 178.109L305.645 178.118L305.641 178.127L305.637 178.137L305.633 178.146L305.629 178.155L305.624 178.164L305.62 178.173L305.616 178.183L305.612 178.192L305.608 178.201L305.604 178.21L305.6 178.219L305.596 178.229L305.592 178.238L305.588 178.247L305.584 178.256L305.58 178.265L305.576 178.275L305.572 178.284L305.568 178.293L305.563 178.302L305.559 178.311L305.555 178.321L305.551 178.33L305.547 178.339L305.543 178.348L305.539 178.357L305.535 178.367L305.531 178.376L305.527 178.385L305.523 178.394L305.519 178.403L305.515 178.413L305.511 178.422L305.507 178.431L305.502 178.44L305.498 178.449L305.494 178.459L305.49 178.468L305.486 178.477L305.482 178.486L305.478 178.495L305.474 178.505L305.47 178.514L305.466 178.523L305.462 178.532L305.458 178.541L305.454 178.551L305.45 178.56L305.446 178.569L305.441 178.578L305.437 178.587L305.433 178.597L305.429 178.606L305.425 178.615L305.421 178.624L305.417 178.633L305.413 178.643L305.409 178.652L305.405 178.661L305.401 178.67L305.397 178.679L305.393 178.689L305.389 178.698L305.385 178.707L305.38 178.716L305.376 178.725L305.372 178.735L305.368 178.744L305.364 178.753L305.36 178.762L305.356 178.771L305.352 178.781L305.348 178.79L305.344 178.799L305.34 178.808L305.336 178.817L305.332 178.827L305.328 178.836L305.323 178.845L305.319 178.854L305.315 178.863L305.311 178.873L305.307 178.882L305.303 178.891L305.299 178.9L305.295 178.909L305.291 178.918L305.287 178.928L305.283 178.937L305.279 178.946L305.275 178.955L305.271 178.964L305.267 178.974L305.262 178.983L305.258 178.992L305.254 179.001L305.25 179.01L305.246 179.02L305.242 179.029L305.238 179.038L305.234 179.047L305.23 179.056L305.226 179.066L305.222 179.075L305.218 179.084L305.214 179.093L305.21 179.102L305.206 179.112L305.201 179.121L305.197 179.13L305.193 179.139L305.189 179.148L305.185 179.158L305.181 179.167L305.177 179.176L305.173 179.185L305.169 179.194L305.165 179.204L305.161 179.213L305.157 179.222L305.153 179.231L305.149 179.24L305.145 179.25L305.14 179.259L305.136 179.268L305.132 179.277L305.128 179.286L305.124 179.296L305.12 179.305L305.116 179.314L305.112 179.323L305.108 179.332L305.104 179.342L305.1 179.351L305.096 179.36L305.092 179.369L305.088 179.378L305.084 179.388L305.079 179.397L305.075 179.406L305.071 179.415L305.067 179.424L305.063 179.434L305.059 179.443L305.055 179.452L305.051 179.461L305.047 179.47L305.043 179.48L305.039 179.489L305.035 179.498L305.031 179.507L305.027 179.516L305.022 179.526L305.018 179.535L305.014 179.544L305.01 179.553L305.006 179.562L305.002 179.572L304.998 179.581L304.994 179.59L304.99 179.599L304.986 179.608L304.982 179.618L304.978 179.627L304.974 179.636L304.97 179.645L304.966 179.654L304.961 179.664L304.957 179.673L304.953 179.682L304.949 179.691L304.945 179.7L304.941 179.71L304.937 179.719L304.933 179.728L304.929 179.737L304.925 179.746L304.921 179.756L304.917 179.765L304.913 179.774L304.909 179.783L304.905 179.792L304.9 179.802L304.896 179.811L304.892 179.82L304.888 179.829L304.884 179.838L304.88 179.848L304.876 179.857L304.872 179.866L304.868 179.875L304.864 179.884L304.86 179.894L304.856 179.903L304.852 179.912L304.848 179.921L304.844 179.93L304.839 179.94L304.835 179.949L304.831 179.958L304.827 179.967L304.823 179.976L304.819 179.986L304.815 179.995L304.811 180.004L304.807 180.013L304.803 180.022L304.799 180.031L304.795 180.041L304.791 180.05L304.787 180.059L304.783 180.068L304.778 180.077L304.774 180.087L304.77 180.096L304.766 180.105L304.762 180.114L304.758 180.123L304.754 180.133L304.75 180.142L304.746 180.151L304.742 180.16L304.738 180.169L304.734 180.179L304.73 180.188L304.726 180.197L304.721 180.206L304.717 180.215L304.713 180.225L304.709 180.234L304.705 180.243L304.701 180.252L304.697 180.261L304.693 180.271L304.689 180.28L304.685 180.289L304.681 180.298L304.677 180.307L304.673 180.317L304.669 180.326L304.665 180.335L304.66 180.344L304.656 180.353L304.652 180.363L304.648 180.372L304.644 180.381L304.64 180.39L304.636 180.399L304.632 180.409L304.628 180.418L304.624 180.427L304.62 180.436L304.616 180.445L304.612 180.455L304.608 180.464L304.604 180.473L304.599 180.482L304.595 180.491L304.591 180.501L304.587 180.51L304.583 180.519L304.579 180.528L304.575 180.537L304.571 180.547L304.567 180.556L304.563 180.565L304.559 180.574L304.555 180.583L304.551 180.593L304.547 180.602L304.543 180.611L304.538 180.62L304.534 180.629L304.53 180.639L304.526 180.648L304.522 180.657L304.518 180.666L304.514 180.675L304.51 180.685L304.506 180.694L304.502 180.703L304.498 180.712L304.494 180.721L304.49 180.731L304.486 180.74L304.482 180.749L304.477 180.758L304.473 180.767L304.469 180.777L304.465 180.786L304.461 180.795L304.457 180.804L304.453 180.813L304.449 180.823L304.445 180.832L304.441 180.841L304.437 180.85L304.433 180.859L304.429 180.869L304.425 180.878L304.42 180.887L304.416 180.896L304.412 180.905L304.408 180.915L304.404 180.924L304.4 180.933L304.396 180.942L304.392 180.951L304.388 180.961L304.384 180.97L304.38 180.979L304.376 180.988L304.372 180.997L304.368 181.007L304.364 181.016L304.359 181.025L304.355 181.034L304.351 181.043L304.347 181.053L304.343 181.062L304.339 181.071L304.335 181.08L304.331 181.089L304.327 181.099L304.323 181.108L304.319 181.117L304.315 181.126L304.311 181.135L304.307 181.145L304.303 181.154L304.298 181.163L304.294 181.172L304.29 181.181L304.286 181.19L304.282 181.2L304.278 181.209L304.274 181.218L304.27 181.227L304.266 181.236L304.262 181.246L304.258 181.255L304.254 181.264L304.25 181.273L304.246 181.282L304.242 181.292L304.237 181.301L304.233 181.31L304.229 181.319L304.225 181.328L304.221 181.338L304.217 181.347L304.213 181.356L304.209 181.365L304.205 181.374L304.201 181.384L304.197 181.393L304.193 181.402L304.189 181.411L304.185 181.42L304.181 181.43L304.176 181.439L304.172 181.448L304.168 181.457L304.164 181.466L304.16 181.476L304.156 181.485L304.152 181.494L304.148 181.503L304.144 181.512L304.14 181.522L304.136 181.531L304.132 181.54L304.128 181.549L304.124 181.558L304.119 181.568L304.115 181.577L304.111 181.586L304.107 181.595L304.103 181.604L304.099 181.614L304.095 181.623L304.091 181.632L304.087 181.641L304.083 181.65L304.079 181.66L304.075 181.669L304.071 181.678L304.067 181.687L304.063 181.696L304.058 181.706L304.054 181.715L304.05 181.724L304.046 181.733L304.042 181.742L304.038 181.752L304.034 181.761L304.03 181.77L304.026 181.779L304.022 181.788L304.018 181.798L304.014 181.807L304.01 181.816L304.006 181.825L304.002 181.834L303.997 181.844L303.993 181.853L303.989 181.862L303.985 181.871L303.981 181.88L303.977 181.89L303.973 181.899L303.969 181.908L303.965 181.917L303.961 181.926C303.699 182.518 303.484 183.086 303.269 183.653C303.167 183.921 303.066 184.189 302.959 184.459C302.636 185.279 302.278 186.095 301.765 186.885C299.625 190.99 296.705 194.688 292.925 198.172L292.906 198.19L292.884 198.207C292.702 198.348 292.515 198.495 292.325 198.645C290.552 200.045 288.413 201.734 285.181 202.211C280.887 202.991 275.235 201.854 271.181 199.345C267.609 197.165 265.338 194.175 264.61 190.637L264.608 190.628L264.607 190.62C264.086 187.362 264.931 184.002 265.952 180.972L265.959 180.951L265.968 180.93C266.094 180.646 266.036 180.226 265.705 179.821C265.383 179.427 264.858 179.127 264.242 179.068L264.205 179.065L264.17 179.056C263.563 178.912 262.859 178.978 262.308 179.185C261.739 179.398 261.483 179.69 261.448 179.941L261.442 179.985L261.427 180.029C260.246 183.409 259.287 186.99 259.799 190.697C260.707 194.913 263.627 198.789 268.004 201.531C273.449 204.746 280.856 206.276 286.891 205.175L286.891 205.175L286.899 205.174C291.521 204.389 294.718 202.011 296.777 200.161C300.939 196.423 304.22 192.51 306.174 188.089L306.179 188.079L306.183 188.069L306.188 188.058L306.193 188.048L306.197 188.038L306.202 188.027L306.206 188.017L306.211 188.007L306.215 187.996L306.22 187.986L306.225 187.976L306.229 187.965L306.234 187.955L306.238 187.945L306.243 187.934L306.247 187.924L306.252 187.913L306.257 187.903L306.261 187.893L306.266 187.882L306.27 187.872L306.275 187.862L306.279 187.851L306.284 187.841L306.289 187.831L306.293 187.82L306.298 187.81L306.302 187.8L306.307 187.789L306.312 187.779L306.316 187.769L306.321 187.758L306.325 187.748L306.33 187.738L306.334 187.727L306.339 187.717L306.344 187.706L306.348 187.696L306.353 187.686L306.357 187.675L306.362 187.665L306.366 187.655L306.371 187.644L306.376 187.634L306.38 187.624L306.385 187.613L306.389 187.603L306.394 187.593L306.398 187.582L306.403 187.572L306.408 187.562L306.412 187.551L306.417 187.541L306.421 187.531L306.426 187.52L306.43 187.51L306.435 187.5L306.44 187.489L306.444 187.479L306.449 187.468L306.453 187.458L306.458 187.448L306.463 187.437L306.467 187.427L306.472 187.417L306.476 187.406L306.481 187.396L306.485 187.386L306.49 187.375L306.495 187.365L306.499 187.355L306.504 187.344L306.508 187.334L306.513 187.324L306.517 187.313L306.522 187.303L306.527 187.293L306.531 187.282L306.536 187.272L306.54 187.262L306.545 187.251L306.549 187.241L306.554 187.23L306.559 187.22L306.563 187.21L306.568 187.199L306.572 187.189L306.577 187.179L306.581 187.168L306.586 187.158L306.591 187.148L306.595 187.137L306.6 187.127L306.604 187.117L306.609 187.106L306.614 187.096L306.618 187.086L306.623 187.075L306.627 187.065L306.632 187.055L306.636 187.044L306.641 187.034L306.646 187.024L306.65 187.013L306.655 187.003L306.659 186.992L306.664 186.982L306.668 186.972L306.673 186.961L306.678 186.951L306.682 186.941L306.687 186.93L306.691 186.92L306.696 186.91L306.7 186.899L306.705 186.889L306.71 186.879L306.714 186.868L306.719 186.858L306.723 186.848L306.728 186.837L306.732 186.827L306.737 186.817L306.742 186.806L306.746 186.796L306.751 186.786L306.755 186.775L306.76 186.765L306.765 186.754L306.769 186.744L306.774 186.734L306.778 186.723L306.783 186.713L306.787 186.703L306.792 186.692L306.797 186.682L306.801 186.672L306.806 186.661L306.81 186.651L306.815 186.641L306.819 186.63L306.824 186.62L306.829 186.61L306.833 186.599L306.838 186.589L306.842 186.579L306.847 186.568L306.851 186.558L306.856 186.547L306.861 186.537L306.865 186.527L306.87 186.516L306.874 186.506L306.879 186.496L306.884 186.485L306.888 186.475L306.893 186.465L306.897 186.454L306.902 186.444L306.906 186.434L306.911 186.423L306.916 186.413L306.92 186.403L306.925 186.392L306.929 186.382L306.934 186.372L306.938 186.361L306.943 186.351L306.948 186.341L306.952 186.33L306.957 186.32L306.961 186.309L306.966 186.299L306.97 186.289L306.975 186.278L306.98 186.268L306.984 186.258L306.989 186.247L306.993 186.237L306.998 186.227L307.002 186.216L307.007 186.206L307.012 186.196L307.016 186.185L307.021 186.175L307.025 186.165L307.03 186.154L307.035 186.144L307.039 186.134L307.044 186.123L307.048 186.113L307.053 186.103L307.057 186.092L307.062 186.082L307.067 186.071L307.071 186.061L307.076 186.051L307.08 186.04L307.085 186.03L307.089 186.02L307.094 186.009L307.099 185.999L307.103 185.989L307.108 185.978L307.112 185.968L307.117 185.958L307.121 185.947L307.126 185.937L307.131 185.927L307.135 185.916L307.14 185.906L307.144 185.896L307.149 185.885L307.153 185.875L307.158 185.865L307.163 185.854L307.167 185.844L307.172 185.833L307.176 185.823L307.181 185.813L307.186 185.802L307.19 185.792L307.195 185.782L307.199 185.771L307.204 185.761L307.208 185.751L307.213 185.74L307.218 185.73L307.222 185.72L307.227 185.709L307.231 185.699L307.236 185.689L307.24 185.678L307.245 185.668L307.25 185.658L307.254 185.647L307.259 185.637L307.263 185.627L307.268 185.616L307.272 185.606L307.277 185.595L307.282 185.585L307.286 185.575L307.291 185.564L307.295 185.554L307.3 185.544L307.304 185.533L307.309 185.523L307.314 185.513L307.318 185.502L307.323 185.492L307.327 185.482L307.332 185.471L307.337 185.461L307.341 185.451L307.346 185.44L307.35 185.43L307.355 185.42L307.359 185.409L307.364 185.399L307.369 185.389L307.373 185.378L307.378 185.368L307.382 185.357L307.387 185.347L307.391 185.337L307.396 185.326L307.401 185.316L307.405 185.306L307.41 185.295L307.414 185.285L307.419 185.275L307.423 185.264L307.428 185.254L307.433 185.244L307.437 185.233L307.442 185.223L307.446 185.213L307.451 185.202L307.456 185.192L307.46 185.182L307.465 185.171L307.469 185.161L307.474 185.15L307.478 185.14L307.483 185.13L307.488 185.119L307.492 185.109L307.497 185.099L307.501 185.088L307.506 185.078L307.51 185.068L307.515 185.057L307.52 185.047L307.524 185.037L307.529 185.026L307.533 185.016L307.538 185.006L307.542 184.995L307.547 184.985L307.552 184.975L307.556 184.964L307.561 184.954L307.565 184.944L307.57 184.933L307.574 184.923L307.579 184.912L307.584 184.902L307.588 184.892L307.593 184.881L307.597 184.871L307.602 184.861L307.607 184.85L307.611 184.84L307.616 184.83L307.62 184.819L307.625 184.809L307.629 184.799L307.634 184.788L307.639 184.778L307.643 184.768L307.648 184.757L307.652 184.747L307.657 184.737L307.661 184.726L307.666 184.716L307.671 184.706L307.675 184.695L307.68 184.685L307.684 184.674L307.689 184.664L307.693 184.654L307.698 184.643L307.703 184.633L307.707 184.623L307.712 184.612L307.716 184.602L307.721 184.592L307.725 184.581L307.73 184.571L307.735 184.561L307.739 184.55L307.744 184.54L307.748 184.53L307.753 184.519L307.758 184.509L307.762 184.499L307.767 184.488L307.771 184.478L307.776 184.468L307.78 184.457L307.785 184.447L307.79 184.436L307.794 184.426L307.799 184.416L307.803 184.405L307.808 184.395L307.812 184.385L307.817 184.374L307.822 184.364L307.826 184.354L307.831 184.343L307.835 184.333L307.84 184.323L307.844 184.312L307.849 184.302L307.854 184.292L307.858 184.281L307.863 184.271L307.867 184.261L307.872 184.25L307.876 184.24L307.881 184.23L307.886 184.219L307.89 184.209L307.895 184.198L307.899 184.188L307.904 184.178L307.909 184.167L307.913 184.157L307.918 184.147L307.922 184.136L307.927 184.126L307.931 184.116L307.936 184.105L307.941 184.095L307.945 184.085L307.95 184.074L307.954 184.064L307.959 184.054L307.963 184.043L307.968 184.033L307.973 184.023L307.977 184.012L307.982 184.002L307.986 183.991L307.991 183.981L307.995 183.971L308 183.96L308.005 183.95L308.009 183.94L308.014 183.929L308.018 183.919L308.023 183.909L308.028 183.898L308.032 183.888L308.037 183.878L308.041 183.867L308.046 183.857L308.05 183.847L308.055 183.836L308.06 183.826L308.064 183.816L308.069 183.805L308.073 183.795L308.078 183.785L308.082 183.774L308.087 183.764L308.092 183.753L308.096 183.743L308.101 183.733L308.105 183.722L308.11 183.712L308.114 183.702L308.119 183.691L308.124 183.681L308.128 183.671L308.133 183.66L308.137 183.65L308.142 183.64L308.146 183.629L308.151 183.619L308.156 183.609L308.16 183.598L308.165 183.588L308.169 183.578L308.174 183.567L308.179 183.557L308.183 183.547L308.188 183.536L308.192 183.526L308.197 183.515L308.201 183.505L308.206 183.495L308.211 183.484L308.215 183.474L308.22 183.464L308.224 183.453L308.229 183.443L308.233 183.433L308.238 183.422L308.243 183.412L308.247 183.402L308.252 183.391L308.256 183.381L308.261 183.371L308.265 183.36L308.27 183.35L308.275 183.34L308.279 183.329L308.284 183.319L308.288 183.309L308.293 183.298L308.297 183.288L308.302 183.277L308.307 183.267L308.311 183.257L308.316 183.246L308.32 183.236L308.325 183.226L308.33 183.215L308.334 183.205L308.339 183.195L308.343 183.184L308.348 183.174L308.352 183.164L308.357 183.153L308.362 183.143L308.366 183.133L308.371 183.122L308.375 183.112L308.38 183.102L308.384 183.091L308.389 183.081L308.394 183.071L308.398 183.06L308.403 183.05L308.407 183.039L308.412 183.029L308.416 183.019L308.421 183.008L308.426 182.998L308.43 182.988L308.435 182.977L308.439 182.967L308.444 182.957L308.448 182.946L308.453 182.936L308.458 182.926L308.462 182.915L308.467 182.905L308.471 182.895L308.476 182.884L308.481 182.874L308.485 182.864L308.49 182.853L308.494 182.843L308.499 182.833L308.503 182.822L308.508 182.812L308.513 182.801L308.517 182.791C308.746 182.274 308.929 181.782 309.115 181.281C309.207 181.034 309.3 180.785 309.399 180.53C309.689 179.784 310.024 179.022 310.53 178.239C312.124 174.651 314.255 172.03 317.109 170.018C320.462 167.653 325.278 166.355 329.813 166.326L329.821 166.326L329.829 166.326C332.395 166.381 335.019 166.838 337.308 167.603C339.587 168.364 341.568 169.443 342.817 170.764C344.723 172.621 344.492 174.69 344.249 175.983L344.248 175.988C343.395 180.237 338.481 183.586 332.107 184.932C331.508 185.068 331.016 185.349 330.725 185.678C330.449 185.991 330.325 186.374 330.484 186.818C330.819 187.75 332.172 188.318 333.707 188.097C341.204 186.667 346.678 183.12 348.564 178.854C348.836 178.239 349.127 177.56 349.106 177.024Z" fill="url(#paint0_linear_11_124)" stroke="#1F3B6D"/>
<path d="M138.408 195.761C139.555 195.215 141.191 194.563 143.316 193.805C145.23 193.121 146.673 192.929 147.646 193.227C148.71 193.544 149.522 194.486 150.082 196.053C150.847 198.243 150.392 199.73 148.718 200.515L148.728 200.613C150.902 200.041 152.442 201.071 153.348 203.704C153.898 205.292 153.911 206.493 153.386 207.309C152.897 208.078 151.748 208.786 149.939 209.431C147.378 210.346 145.39 210.988 143.975 211.357L138.408 195.761ZM146.087 200.639C147.242 200.21 147.973 199.736 148.281 199.218C148.593 198.665 148.564 197.869 148.193 196.829C147.821 195.789 147.343 195.187 146.758 195.022C146.223 194.857 145.33 194.997 144.079 195.443L140.915 196.573L142.787 201.817L146.087 200.639ZM145.371 209.126C145.979 208.926 147.119 208.527 148.792 207.93C150.103 207.462 150.927 206.964 151.265 206.435C151.607 205.871 151.575 205.042 151.167 203.947C150.747 202.772 150.229 202.057 149.611 201.802C149.019 201.571 148.07 201.672 146.763 202.105L143.327 203.331L145.371 209.126ZM172.361 201.224L170.462 201.901L168.638 196.793L162.875 198.851L164.698 203.959L162.8 204.637L158.87 193.629L160.769 192.951L162.35 197.381L168.114 195.324L166.555 190.886L168.454 190.208L172.361 201.224ZM184.945 196.349C184.11 197.105 182.714 197.833 180.755 198.533C178.871 199.205 177.333 199.202 176.139 198.524C174.987 197.865 174.029 196.491 173.266 194.402C172.502 192.262 172.372 190.661 172.876 189.597C173.346 188.58 174.567 187.72 176.541 187.015C178.214 186.418 179.527 186.289 180.481 186.628C181.358 186.943 181.994 187.702 182.389 188.903C182.73 189.953 182.682 190.82 182.246 191.502C181.845 192.138 181.007 192.743 179.734 193.316L175.84 195.114C176.389 196.226 177.021 196.901 177.735 197.139C178.351 197.344 179.187 197.258 180.242 196.881C181.553 196.413 182.862 195.844 184.168 195.174L184.945 196.349ZM178.991 191.95C179.708 191.627 180.174 191.29 180.39 190.942C180.6 190.578 180.607 190.074 180.411 189.431C180.152 188.657 179.753 188.23 179.215 188.15C178.824 188.103 178.116 188.262 177.092 188.628C175.856 189.069 175.106 189.608 174.841 190.247C174.577 190.935 174.718 192.091 175.263 193.714L178.991 191.95ZM196.396 180.233C196.923 180.045 197.271 180.209 197.438 180.727L201.568 190.797L199.805 191.426L195.971 182.041L195.587 182.178L195.597 190.915C195.616 191.35 195.445 191.632 195.083 191.761L193.501 192.326C193.139 192.455 192.805 192.328 192.498 191.945L186.975 185.252L186.568 185.398L189.566 195.081L187.803 195.711L184.553 185.251C184.386 184.783 184.537 184.466 185.004 184.3L186.97 183.598C187.347 183.463 187.681 183.59 187.973 183.979L192.421 189.373C192.925 189.975 193.315 190.473 193.592 190.867L193.953 190.738C193.883 189.352 193.848 188.754 193.847 188.941L193.87 181.797C193.851 181.362 194.03 181.078 194.407 180.943L196.396 180.233ZM212.549 186.877L208.119 174.468C207.943 174.021 207.811 173.558 207.725 173.08L204.349 175.686L203.576 174.306L206.959 171.289L208.948 170.579L214.515 186.175L212.549 186.877ZM218.184 175.64C216.643 175.987 215.476 175.052 214.686 172.837C214.159 171.361 214.114 170.213 214.552 169.394C215.014 168.498 216.189 167.722 218.078 167.065C220.022 166.371 221.492 166.228 222.487 166.637C223.386 167.013 224.109 167.944 224.657 169.431C225.422 171.621 225.103 173.06 223.701 173.747L223.688 173.854C225.5 173.411 226.859 174.506 227.765 177.138C228.307 178.61 228.342 179.753 227.868 180.567C227.34 181.469 226.062 182.291 224.033 183.032C222.11 183.736 220.595 183.894 219.489 183.508C218.429 183.156 217.638 182.249 217.116 180.787C216.206 178.19 216.565 176.507 218.193 175.739L218.184 175.64ZM218.742 168.637C217.446 169.1 216.667 169.607 216.405 170.159C216.158 170.655 216.225 171.438 216.607 172.508C216.983 173.563 217.434 174.184 217.96 174.37C218.5 174.551 219.433 174.404 220.759 173.931C222.025 173.479 222.789 173.003 223.052 172.501C223.305 172.02 223.235 171.229 222.842 170.129C222.491 169.099 222.058 168.481 221.543 168.274C220.986 168.048 220.053 168.169 218.742 168.637ZM221.233 175.546C219.822 176.066 218.97 176.583 218.678 177.095C218.38 177.643 218.461 178.557 218.918 179.838C219.3 180.908 219.774 181.546 220.34 181.751C220.967 181.986 221.982 181.853 223.383 181.353C224.709 180.88 225.528 180.341 225.839 179.737C226.151 179.184 226.1 178.353 225.687 177.243C225.257 176.037 224.764 175.322 224.207 175.096C223.641 174.89 222.65 175.04 221.233 175.546ZM152.073 232.607C154.136 232.007 155.525 232.734 156.242 234.789C156.619 235.894 156.544 236.779 156.017 237.443C155.495 238.122 154.375 238.768 152.657 239.381C150.623 240.107 149.12 240.228 148.148 239.742C147.074 239.208 146.124 237.738 145.299 235.331C144.495 232.985 144.341 231.29 144.835 230.247C145.246 229.353 146.386 228.572 148.254 227.905C149.641 227.41 150.727 227.193 151.512 227.252C152.689 227.359 153.47 228.048 153.856 229.32C154.22 230.719 153.625 231.79 152.072 232.531L152.073 232.607ZM149.768 232.716C151.506 231.875 152.251 230.964 152.003 229.982C151.838 229.378 151.515 229.043 151.033 228.978C150.571 228.922 149.82 229.079 148.78 229.45C147.605 229.87 146.899 230.343 146.662 230.869C146.402 231.472 146.52 232.542 147.019 234.08L149.768 232.716ZM147.488 235.467C148.062 236.978 148.64 237.885 149.223 238.186C149.719 238.434 150.525 238.358 151.64 237.96C152.8 237.546 153.561 237.13 153.921 236.713C154.312 236.284 154.373 235.694 154.104 234.94C153.809 234.162 153.402 233.687 152.882 233.516C152.291 233.336 151.463 233.513 150.396 234.047L147.488 235.467ZM160.639 223.484C162.507 222.817 164.014 222.78 165.161 223.374C166.332 223.992 167.287 225.358 168.026 227.473C168.768 229.552 168.916 231.156 168.469 232.284C168.007 233.417 166.857 234.312 165.018 234.968C163.15 235.635 161.643 235.672 160.496 235.079C159.324 234.461 158.357 233.108 157.594 231.018C156.852 228.939 156.709 227.325 157.166 226.177C157.612 225.049 158.77 224.151 160.639 223.484ZM161.446 225.031C160.225 225.467 159.483 226.054 159.221 226.794C158.944 227.589 159.091 228.811 159.662 230.458C160.237 232.02 160.837 233.012 161.464 233.434C162.105 233.851 163.021 233.847 164.211 233.422C165.432 232.986 166.176 232.381 166.443 231.606C166.695 230.836 166.533 229.645 165.957 228.033C165.408 226.445 164.812 225.443 164.171 225.027C163.529 224.61 162.621 224.611 161.446 225.031ZM171.62 222.596C172.774 220.163 174.096 218.68 175.588 218.148C176.537 217.809 177.367 217.801 178.077 218.125C178.808 218.459 179.351 219.123 179.706 220.118L182.62 228.353L180.722 229.031L177.954 221.278C177.681 220.56 177.39 220.104 177.082 219.908C176.775 219.712 176.35 219.711 175.807 219.904C174.752 220.281 173.579 221.634 172.287 223.964L174.89 231.113L172.969 231.799L169.039 220.791L170.576 220.243L171.62 222.596ZM184.762 217.931C185.608 215.59 186.815 214.14 188.382 213.58C189.693 213.112 190.768 213.196 191.606 213.831C192.496 214.516 193.344 215.963 194.15 218.173C194.963 220.498 195.131 222.205 194.653 223.294C194.251 224.167 193.229 224.897 191.587 225.484C190.517 225.866 189.299 226.19 187.933 226.457C188.336 227.299 188.623 227.986 188.797 228.519L189.639 231.021L187.718 231.707L182.195 216.095L183.71 215.554L184.762 217.931ZM187.562 225.06C188.678 224.713 189.523 224.437 190.095 224.232C191.602 223.695 192.48 223.109 192.73 222.476C192.984 221.808 192.786 220.562 192.135 218.739C191.528 217.087 191.007 216.032 190.573 215.576C190.128 215.14 189.529 215.057 188.776 215.326C187.555 215.761 186.468 217.092 185.513 219.319L187.562 225.06ZM199.664 209.553C201.532 208.886 203.04 208.849 204.186 209.442C205.358 210.06 206.313 211.427 207.051 213.542C207.793 215.621 207.941 217.225 207.494 218.353C207.032 219.486 205.882 220.381 204.044 221.037C202.175 221.704 200.668 221.741 199.522 221.148C198.35 220.53 197.382 219.176 196.62 217.087C195.877 215.007 195.734 213.394 196.191 212.245C196.638 211.117 197.795 210.22 199.664 209.553ZM200.471 211.1C199.25 211.535 198.509 212.123 198.246 212.862C197.969 213.658 198.117 214.879 198.688 216.527C199.262 218.089 199.863 219.081 200.489 219.503C201.13 219.919 202.046 219.915 203.237 219.49C204.457 219.054 205.201 218.449 205.468 217.674C205.72 216.905 205.558 215.714 204.983 214.101C204.433 212.514 203.837 211.512 203.196 211.095C202.555 210.679 201.646 210.68 200.471 211.1ZM220.351 214.578C219.41 215.322 218.247 215.941 216.86 216.436C214.931 217.125 213.391 217.165 212.24 216.557C211.124 215.953 210.189 214.596 209.436 212.486C208.698 210.371 208.555 208.757 209.007 207.645C209.475 206.526 210.643 205.634 212.511 204.967C213.973 204.445 215.235 204.198 216.299 204.226L216.613 205.465C215.742 205.69 214.75 206.002 213.634 206.4C212.248 206.895 211.403 207.503 211.1 208.223C210.757 209.025 210.892 210.259 211.504 211.926C212.126 213.573 212.775 214.582 213.451 214.952C214.086 215.303 215.059 215.244 216.37 214.776C217.635 214.325 218.709 213.857 219.589 213.372L220.351 214.578ZM223.326 201.106C225.195 200.439 226.702 200.402 227.848 200.995C229.02 201.613 229.975 202.979 230.713 205.094C231.456 207.174 231.603 208.778 231.157 209.905C230.695 211.039 229.545 211.933 227.706 212.59C225.838 213.257 224.33 213.294 223.184 212.701C222.012 212.083 221.045 210.729 220.282 208.64C219.54 206.56 219.397 204.946 219.853 203.798C220.3 202.67 221.458 201.773 223.326 201.106ZM224.133 202.653C222.913 203.088 222.171 203.676 221.908 204.415C221.632 205.21 221.779 206.432 222.35 208.08C222.925 209.642 223.525 210.634 224.152 211.056C224.793 211.472 225.709 211.468 226.899 211.043C228.12 210.607 228.864 210.002 229.131 209.227C229.383 208.458 229.221 207.267 228.645 205.654C228.095 204.067 227.5 203.065 226.858 202.648C226.217 202.231 225.309 202.233 224.133 202.653ZM239.925 201.246C241.987 200.645 243.376 201.372 244.093 203.427C244.47 204.533 244.396 205.417 243.868 206.081C243.346 206.76 242.226 207.406 240.508 208.02C238.474 208.746 236.971 208.866 235.999 208.381C234.925 207.847 233.975 206.376 233.15 203.97C232.347 201.623 232.192 199.929 232.686 198.886C233.097 197.992 234.237 197.211 236.106 196.544C237.492 196.049 238.578 195.831 239.364 195.89C240.54 195.997 241.321 196.687 241.708 197.959C242.071 199.358 241.476 200.428 239.923 201.17L239.925 201.246ZM237.619 201.355C239.358 200.514 240.103 199.602 239.854 198.62C239.689 198.017 239.366 197.682 238.884 197.616C238.422 197.56 237.672 197.718 236.632 198.089C235.456 198.508 234.75 198.981 234.513 199.508C234.253 200.11 234.372 201.181 234.87 202.719L237.619 201.355ZM235.339 204.106C235.913 205.617 236.491 206.523 237.074 206.825C237.571 207.072 238.376 206.997 239.491 206.599C240.652 206.185 241.412 205.769 241.773 205.351C242.163 204.923 242.224 204.332 241.955 203.579C241.661 202.8 241.253 202.326 240.733 202.155C240.143 201.975 239.314 202.152 238.247 202.685L235.339 204.106Z" fill="white"/>
<path d="M1087.78 280C1087.78 280 1091.64 285.355 1095.38 286.783C1099.11 288.211 1105.53 286.783 1105.53 286.783C1105.53 286.783 1100.18 290.639 1098.75 294.375C1097.32 298.111 1098.75 304.531 1098.75 304.531C1098.75 304.531 1095.11 298.303 1091.38 296.875C1087.64 295.447 1081 297.748 1081 297.748C1081 297.748 1086.36 294.111 1087.78 290.375C1089.21 286.639 1087.78 280 1087.78 280Z" fill="#59687D"/>
<path d="M1055.28 0.925018C1055.28 0.925018 1057.43 3.91151 1059.52 4.70791C1061.6 5.50431 1065.18 4.70791 1065.18 4.70791C1065.18 4.70791 1062.19 6.85799 1061.4 8.94172C1060.6 11.0254 1061.4 14.6056 1061.4 14.6056C1061.4 14.6056 1059.37 11.1323 1057.29 10.3359C1055.2 9.53952 1051.5 10.8227 1051.5 10.8227C1051.5 10.8227 1054.49 8.79471 1055.28 6.71098C1056.08 4.62725 1055.28 0.925018 1055.28 0.925018Z" fill="#59687D"/>
<path d="M122.781 82C122.781 82 126.639 87.3552 130.375 88.7832C134.111 90.2113 140.529 88.7832 140.529 88.7832C140.529 88.7832 135.174 92.6386 133.746 96.375C132.318 100.111 133.746 106.531 133.746 106.531C133.746 106.531 130.111 100.303 126.375 98.875C122.639 97.447 115.998 99.7479 115.998 99.7479C115.998 99.7479 121.353 96.1114 122.781 92.375C124.209 88.6386 122.781 82 122.781 82Z" fill="#59687D"/>
<path d="M298.785 11C298.785 11 302.643 16.3552 306.379 17.7832C310.115 19.2113 316.533 17.7832 316.533 17.7832C316.533 17.7832 311.178 21.6386 309.75 25.375C308.322 29.1114 309.75 35.5311 309.75 35.5311C309.75 35.5311 306.115 29.303 302.379 27.875C298.643 26.447 292.002 28.7479 292.002 28.7479C292.002 28.7479 297.357 25.1114 298.785 21.375C300.213 17.6386 298.785 11 298.785 11Z" fill="#59687D"/>
<path d="M585.785 8.99924C585.785 8.99924 589.643 14.3544 593.379 15.7825C597.115 17.2105 603.533 15.7825 603.533 15.7825C603.533 15.7825 598.178 19.6378 596.75 23.3742C595.322 27.1106 596.75 33.5304 596.75 33.5304C596.75 33.5304 593.115 27.3023 589.379 25.8742C585.643 24.4462 579.002 26.7471 579.002 26.7471C579.002 26.7471 584.357 23.1106 585.785 19.3742C587.213 15.6378 585.785 8.99924 585.785 8.99924Z" fill="#59687D"/>
<path d="M1293.78 203C1293.78 203 1297.64 208.355 1301.38 209.783C1305.11 211.211 1311.53 209.783 1311.53 209.783C1311.53 209.783 1306.18 213.639 1304.75 217.375C1303.32 221.111 1304.75 227.531 1304.75 227.531C1304.75 227.531 1301.11 221.303 1297.38 219.875C1293.64 218.447 1287 220.748 1287 220.748C1287 220.748 1292.36 217.111 1293.78 213.375C1295.21 209.639 1293.78 203 1293.78 203Z" fill="#59687D"/>
<path d="M246.781 310C246.781 310 250.639 315.355 254.375 316.783C258.111 318.211 264.529 316.783 264.529 316.783C264.529 316.783 259.174 320.639 257.746 324.375C256.318 328.111 257.746 334.531 257.746 334.531C257.746 334.531 254.111 328.303 250.375 326.875C246.639 325.447 239.998 327.748 239.998 327.748C239.998 327.748 245.353 324.111 246.781 320.375C248.209 316.639 246.781 310 246.781 310Z" fill="#59687D"/>
<path d="M1240.19 96.5352C1240.19 96.5352 1244.37 97.4314 1246.78 96.493C1249.2 95.5545 1251.66 92.0775 1251.66 92.0775C1251.66 92.0775 1250.77 96.259 1251.71 98.6756C1252.64 101.092 1256.12 103.556 1256.12 103.556C1256.12 103.556 1251.67 102.144 1249.25 103.082C1246.83 104.021 1244.64 108.014 1244.64 108.014C1244.64 108.014 1245.64 103.938 1244.7 101.521C1243.76 99.1046 1240.19 96.5352 1240.19 96.5352Z" fill="#59687D"/>
<path d="M0 251.457C0 251.457 4.18243 252.353 6.59904 251.415C9.01566 250.476 11.4789 246.999 11.4789 246.999C11.4789 246.999 10.5818 251.181 11.5203 253.597C12.4587 256.014 15.9366 258.478 15.9366 258.478C15.9366 258.478 11.4817 257.066 9.06505 258.004C6.64844 258.943 4.45766 262.936 4.45766 262.936C4.45766 262.936 5.44995 258.86 4.51149 256.443C3.57304 254.026 0 251.457 0 251.457Z" fill="#59687D"/>
<path d="M1235 344.456C1235 344.456 1239.18 345.353 1241.6 344.414C1244.02 343.476 1246.48 339.999 1246.48 339.999C1246.48 339.999 1245.58 344.18 1246.52 346.597C1247.46 349.013 1250.94 351.478 1250.94 351.478C1250.94 351.478 1246.48 350.065 1244.07 351.003C1241.65 351.942 1239.46 355.935 1239.46 355.935C1239.46 355.935 1240.45 351.859 1239.51 349.442C1238.57 347.026 1235 344.456 1235 344.456Z" fill="#59687D"/>
<path d="M838 8.45703C838 8.45703 842.182 9.35328 844.599 8.41483C847.016 7.47638 849.479 3.99937 849.479 3.99937C849.479 3.99937 848.582 8.18085 849.52 10.5975C850.459 13.0141 853.937 15.4783 853.937 15.4783C853.937 15.4783 849.482 14.0657 847.065 15.0041C844.648 15.9426 842.458 19.936 842.458 19.936C842.458 19.936 843.45 15.8597 842.511 13.4431C841.573 11.0264 838 8.45703 838 8.45703Z" fill="#59687D"/>
<path d="M1087.78 680C1087.78 680 1091.64 685.355 1095.38 686.783C1099.11 688.211 1105.53 686.783 1105.53 686.783C1105.53 686.783 1100.18 690.639 1098.75 694.375C1097.32 698.111 1098.75 704.531 1098.75 704.531C1098.75 704.531 1095.11 698.303 1091.38 696.875C1087.64 695.447 1081 697.748 1081 697.748C1081 697.748 1086.36 694.111 1087.78 690.375C1089.21 686.639 1087.78 680 1087.78 680Z" fill="#59687D"/>
<path d="M1055.28 400.925C1055.28 400.925 1057.43 403.912 1059.52 404.708C1061.6 405.504 1065.18 404.708 1065.18 404.708C1065.18 404.708 1062.19 406.858 1061.4 408.942C1060.6 411.025 1061.4 414.606 1061.4 414.606C1061.4 414.606 1059.37 411.132 1057.29 410.336C1055.2 409.54 1051.5 410.823 1051.5 410.823C1051.5 410.823 1054.49 408.795 1055.28 406.711C1056.08 404.627 1055.28 400.925 1055.28 400.925Z" fill="#59687D"/>
<path d="M122.781 482C122.781 482 126.639 487.355 130.375 488.783C134.111 490.211 140.529 488.783 140.529 488.783C140.529 488.783 135.174 492.639 133.746 496.375C132.318 500.111 133.746 506.531 133.746 506.531C133.746 506.531 130.111 500.303 126.375 498.875C122.639 497.447 115.998 499.748 115.998 499.748C115.998 499.748 121.353 496.111 122.781 492.375C124.209 488.639 122.781 482 122.781 482Z" fill="#59687D"/>
<path d="M298.785 411C298.785 411 302.643 416.355 306.379 417.783C310.115 419.211 316.533 417.783 316.533 417.783C316.533 417.783 311.178 421.639 309.75 425.375C308.322 429.111 309.75 435.531 309.75 435.531C309.75 435.531 306.115 429.303 302.379 427.875C298.643 426.447 292.002 428.748 292.002 428.748C292.002 428.748 297.357 425.111 298.785 421.375C300.213 417.639 298.785 411 298.785 411Z" fill="#59687D"/>
<path d="M585.785 408.999C585.785 408.999 589.643 414.354 593.379 415.782C597.115 417.211 603.533 415.782 603.533 415.782C603.533 415.782 598.178 419.638 596.75 423.374C595.322 427.111 596.75 433.53 596.75 433.53C596.75 433.53 593.115 427.302 589.379 425.874C585.643 424.446 579.002 426.747 579.002 426.747C579.002 426.747 584.357 423.111 585.785 419.374C587.213 415.638 585.785 408.999 585.785 408.999Z" fill="#59687D"/>
<path d="M1293.78 603C1293.78 603 1297.64 608.355 1301.38 609.783C1305.11 611.211 1311.53 609.783 1311.53 609.783C1311.53 609.783 1306.18 613.639 1304.75 617.375C1303.32 621.111 1304.75 627.531 1304.75 627.531C1304.75 627.531 1301.11 621.303 1297.38 619.875C1293.64 618.447 1287 620.748 1287 620.748C1287 620.748 1292.36 617.111 1293.78 613.375C1295.21 609.639 1293.78 603 1293.78 603Z" fill="#59687D"/>
<path d="M246.781 710C246.781 710 250.639 715.355 254.375 716.783C258.111 718.211 264.529 716.783 264.529 716.783C264.529 716.783 259.174 720.639 257.746 724.375C256.318 728.111 257.746 734.531 257.746 734.531C257.746 734.531 254.111 728.303 250.375 726.875C246.639 725.447 239.998 727.748 239.998 727.748C239.998 727.748 245.353 724.111 246.781 720.375C248.209 716.639 246.781 710 246.781 710Z" fill="#59687D"/>
<path d="M1240.19 496.535C1240.19 496.535 1244.37 497.431 1246.78 496.493C1249.2 495.555 1251.66 492.077 1251.66 492.077C1251.66 492.077 1250.77 496.259 1251.71 498.676C1252.64 501.092 1256.12 503.556 1256.12 503.556C1256.12 503.556 1251.67 502.144 1249.25 503.082C1246.83 504.021 1244.64 508.014 1244.64 508.014C1244.64 508.014 1245.64 503.938 1244.7 501.521C1243.76 499.105 1240.19 496.535 1240.19 496.535Z" fill="#59687D"/>
<path d="M0 651.457C0 651.457 4.18243 652.353 6.59904 651.415C9.01566 650.476 11.4789 646.999 11.4789 646.999C11.4789 646.999 10.5818 651.181 11.5203 653.597C12.4587 656.014 15.9366 658.478 15.9366 658.478C15.9366 658.478 11.4817 657.066 9.06505 658.004C6.64844 658.943 4.45766 662.936 4.45766 662.936C4.45766 662.936 5.44995 658.86 4.51149 656.443C3.57304 654.026 0 651.457 0 651.457Z" fill="#59687D"/>
<path d="M1235 744.456C1235 744.456 1239.18 745.353 1241.6 744.414C1244.02 743.476 1246.48 739.999 1246.48 739.999C1246.48 739.999 1245.58 744.18 1246.52 746.597C1247.46 749.013 1250.94 751.478 1250.94 751.478C1250.94 751.478 1246.48 750.065 1244.07 751.003C1241.65 751.942 1239.46 755.935 1239.46 755.935C1239.46 755.935 1240.45 751.859 1239.51 749.442C1238.57 747.026 1235 744.456 1235 744.456Z" fill="#59687D"/>
<path d="M838 408.457C838 408.457 842.182 409.353 844.599 408.415C847.016 407.476 849.479 403.999 849.479 403.999C849.479 403.999 848.582 408.181 849.52 410.597C850.459 413.014 853.937 415.478 853.937 415.478C853.937 415.478 849.482 414.066 847.065 415.004C844.648 415.943 842.458 419.936 842.458 419.936C842.458 419.936 843.45 415.86 842.511 413.443C841.573 411.026 838 408.457 838 408.457Z" fill="#59687D"/>
<defs>
<filter id="filter0_d_11_124" x="85.1944" y="127.261" width="213.801" height="164.074" filterUnits="userSpaceOnUse" color-interpolation-filters="sRGB">
<feFlood flood-opacity="0" result="BackgroundImageFix"/>
<feColorMatrix in="SourceAlpha" type="matrix" values="0 0 0 0 0 0 0 0 0 0 0 0 0 0 0 0 0 0 127 0" result="hardAlpha"/>
<feOffset dy="4"/>
<feGaussianBlur stdDeviation="7.5"/>
<feComposite in2="hardAlpha" operator="out"/>
<feColorMatrix type="matrix" values="0 0 0 0 1 0 0 0 0 1 0 0 0 0 1 0 0 0 0.29 0"/>
<feBlend mode="normal" in2="BackgroundImageFix" result="effect1_dropShadow_11_124"/>
<feBlend mode="normal" in="SourceGraphic" in2="effect1_dropShadow_11_124" result="shape"/>
</filter>
<linearGradient id="paint0_linear_11_124" x1="263.38" y1="174.307" x2="336.763" y2="206.758" gradientUnits="userSpaceOnUse">
<stop stop-color="#FFC200"/>
<stop offset="1" stop-color="#FFC200"/>
</linearGradient>
</defs>
</svg>
