<svg width="42" height="42" viewBox="0 0 42 42" fill="none" xmlns="http://www.w3.org/2000/svg">
<circle cx="21" cy="21" r="20.3438" stroke="white" stroke-width="1.3125"/>
<circle cx="21" cy="21" r="20.3438" stroke="white" stroke-opacity="0.2" stroke-width="1.3125"/>
<circle cx="21.0006" cy="21.0006" r="16.3053" fill="white"/>
<circle cx="21.0006" cy="21.0006" r="16.3053" stroke="white" stroke-width="1.3125"/>
<circle cx="21.0006" cy="21.0006" r="16.3053" stroke="white" stroke-opacity="0.2" stroke-width="1.3125"/>
<path d="M28.2413 11.5772L11.0197 18.3161C9.74776 18.8138 9.61209 20.56 10.7919 21.2482L13.9061 23.0648L14.9352 27.8674C15.1699 28.9626 16.4123 29.5021 17.3728 28.9258L20.4398 27.0856L24.909 30.1796C25.8804 30.8521 27.2223 30.3028 27.4434 29.1423L30.4411 13.404C30.6815 12.1418 29.4378 11.109 28.2413 11.5772Z" fill="#254A79"/>
<path d="M28.2413 11.5772L11.0197 18.3161C9.74776 18.8138 9.61209 20.56 10.7919 21.2482L13.9061 23.0648L14.9352 27.8674C15.1699 28.9626 16.4123 29.5021 17.3728 28.9258L20.4398 27.0856L24.909 30.1796C25.8804 30.8521 27.2223 30.3028 27.4434 29.1423L30.4411 13.404C30.6815 12.1418 29.4378 11.109 28.2413 11.5772Z" stroke="white" stroke-width="1.63343"/>
<path d="M28.2413 11.5772L11.0197 18.3161C9.74776 18.8138 9.61209 20.56 10.7919 21.2482L13.9061 23.0648L14.9352 27.8674C15.1699 28.9626 16.4123 29.5021 17.3728 28.9258L20.4398 27.0856L24.909 30.1796C25.8804 30.8521 27.2223 30.3028 27.4434 29.1423L30.4411 13.404C30.6815 12.1418 29.4378 11.109 28.2413 11.5772Z" stroke="#D9E6F7" stroke-width="1.63343"/>
<path d="M24.4625 17.0069L16.1259 21.9331C16.0014 22.0067 15.9401 22.1533 15.9751 22.2936L16.707 25.2211C16.7806 25.5154 17.1805 25.5593 17.3161 25.288L17.9005 24.1192C17.9176 24.085 17.9406 24.0541 17.9684 24.0278L24.853 17.5257C25.1362 17.2583 24.7978 16.8088 24.4625 17.0069Z" fill="#D9D9D9"/>
</svg>
