<svg width="42" height="42" viewBox="0 0 42 42" fill="none" xmlns="http://www.w3.org/2000/svg">
<circle cx="20.9986" cy="21.0006" r="16.9615" fill="white"/>
<circle cx="20.9986" cy="21.0006" r="16.9615" fill="white" fill-opacity="0.2"/>
<path d="M32.1753 16.1335C32.1753 16.1335 31.9535 14.4561 31.2697 13.7172C30.4021 12.7485 29.4308 12.7433 28.9846 12.6882C25.7926 12.4414 21.0059 12.4414 21.0059 12.4414H20.9954C20.9954 12.4414 16.2087 12.4414 13.0167 12.6882C12.5718 12.7433 11.6005 12.7485 10.7317 13.7172C10.0492 14.4561 9.82603 16.1335 9.82603 16.1335C9.82603 16.1335 9.59766 18.1022 9.59766 20.0697V21.915C9.59766 23.8851 9.82603 25.8525 9.82603 25.8525C9.82603 25.8525 10.0478 27.5299 10.7317 28.2662C11.6005 29.2348 12.7385 29.2047 13.2464 29.3057C15.0708 29.4934 21.0007 29.5512 21.0007 29.5512C21.0007 29.5512 25.7926 29.5433 28.9846 29.2978C29.4295 29.2401 30.4021 29.2348 31.2697 28.2675C31.9522 27.5299 32.1753 25.8538 32.1753 25.8538C32.1753 25.8538 32.4037 23.8851 32.4037 21.9163V20.071C32.4037 18.1022 32.1753 16.1335 32.1753 16.1335ZM18.1525 25.2737V16.7188L25.282 20.9963L18.1525 25.2737Z" fill="#254A79"/>
<path d="M21 1.3125C31.8557 1.3125 40.6875 10.1443 40.6875 21C40.6875 31.8557 31.8557 40.6875 21 40.6875C10.1443 40.6875 1.3125 31.8557 1.3125 21C1.3125 10.1443 10.1443 1.3125 21 1.3125ZM21 0C9.40275 0 0 9.40275 0 21C0 32.5973 9.40275 42 21 42C32.5973 42 42 32.5986 42 21C42 9.40144 32.5973 0 21 0Z" fill="white"/>
<path d="M21 1.3125C31.8557 1.3125 40.6875 10.1443 40.6875 21C40.6875 31.8557 31.8557 40.6875 21 40.6875C10.1443 40.6875 1.3125 31.8557 1.3125 21C1.3125 10.1443 10.1443 1.3125 21 1.3125ZM21 0C9.40275 0 0 9.40275 0 21C0 32.5973 9.40275 42 21 42C32.5973 42 42 32.5986 42 21C42 9.40144 32.5973 0 21 0Z" fill="white" fill-opacity="0.2"/>
</svg>
